<svg width="48" height="48" fill="none" viewBox="0 0 48 48" xmlns="http://www.w3.org/2000/svg">
  <path fill="#fff" fill-rule="evenodd" d="M29.366 7.146a1.47 1.47 0 0 1 1.597.212l12 10.303c.342.294.54.729.54 1.188s-.198.893-.54 1.187l-12 10.303a1.47 1.47 0 0 1-1.597.212 1.55 1.55 0 0 1-.864-1.4v-3.605h-10.5c-.828 0-1.5-.692-1.5-1.546s.672-1.545 1.5-1.545h12c.829 0 1.5.692 1.5 1.545v1.852l8.157-7.003-8.157-7.004v1.852c0 .854-.671 1.545-1.5 1.545h-12c-.828 0-1.5-.692-1.5-1.545s.672-1.545 1.5-1.545h10.5V8.545c0-.6.337-1.145.864-1.4" clip-rule="evenodd"/>
  <path fill="#fff" fill-rule="evenodd" d="M18.636 40.854a1.47 1.47 0 0 1-1.596-.212l-12-10.303a1.56 1.56 0 0 1-.54-1.187c0-.46.198-.894.54-1.188l12-10.303a1.47 1.47 0 0 1 1.596-.212c.527.254.864.8.864 1.4v3.605H30c.828 0 1.5.692 1.5 1.546s-.672 1.545-1.5 1.545H18c-.828 0-1.5-.692-1.5-1.545v-1.852l-8.157 7.003 8.157 7.004v-1.852c0-.853.672-1.545 1.5-1.545h12c.828 0 1.5.691 1.5 1.545s-.672 1.546-1.5 1.546H19.5v3.606c0 .6-.337 1.145-.864 1.4M9.358 13.697c0-.853.672-1.545 1.5-1.545h1.715c.828 0 1.5.692 1.5 1.545 0 .854-.672 1.546-1.5 1.546h-1.715c-.828 0-1.5-.692-1.5-1.546m29.286 20.606c0 .853-.672 1.545-1.5 1.545H35.43c-.829 0-1.5-.692-1.5-1.545 0-.854.671-1.546 1.5-1.546h1.714c.828 0 1.5.692 1.5 1.546" clip-rule="evenodd"/>
</svg>
