<svg width="133" height="24" fill="none" viewBox="0 0 133 24" xmlns="http://www.w3.org/2000/svg">
  <path fill="#00D1FF" d="M7.007 5.945a.95.95 0 0 0-.75-.35H.182a.18.18 0 0 1-.131-.052A.16.16 0 0 1 0 5.43V1.305q0-.062.05-.113a.18.18 0 0 1 .132-.052h6.42q2.43 0 4.192 2l1.56 1.918-3.038 3.733zm11.22-2.825q1.761-1.98 4.212-1.98h6.4q.08 0 .12.041.04.042.041.124V5.43a.18.18 0 0 1-.04.113q-.041.051-.122.051h-6.075a.95.95 0 0 0-.75.351l-4.475 5.486 4.496 5.527q.303.33.729.33h6.075q.08 0 .122.052.04.052.04.134v4.124a.18.18 0 0 1-.04.113q-.041.052-.122.052h-6.4q-2.45 0-4.191-2l-3.727-4.579-3.726 4.579q-1.763 2-4.212 2h-6.4q-.081 0-.121-.052a.2.2 0 0 1-.04-.134v-4.125q-.001-.06.04-.113.04-.051.121-.051h6.075q.425 0 .75-.351l4.394-5.403z"/>
  <path fill="#fff" d="M128.679 4.28h2.32V19h-2.32zm-5.218 3.88a2.85 2.85 0 0 1 2.84 2.84v5.16c0 1.54-1.24 2.84-2.84 2.84h-4.8c-1.5 0-2.82-1.26-2.82-2.84V11c0-1.52 1.26-2.84 2.82-2.84zm.52 7.68v-4.52c0-.64-.5-1.14-1.14-1.14h-3.54c-.64 0-1.16.5-1.16 1.14v4.52c0 .66.52 1.16 1.16 1.16h3.54c.64 0 1.14-.5 1.14-1.16m-13.098-7.68a2.85 2.85 0 0 1 2.84 2.84v5.16c0 1.54-1.24 2.84-2.84 2.84h-4.8c-1.5 0-2.82-1.26-2.82-2.84V11c0-1.52 1.26-2.84 2.82-2.84zm.52 7.68v-4.52c0-.64-.5-1.14-1.14-1.14h-3.54c-.64 0-1.16.5-1.16 1.14v4.52c0 .66.52 1.16 1.16 1.16h3.54c.64 0 1.14-.5 1.14-1.16M97.989 5c1.66 0 3.12 1.38 3.12 3.12v3.6c0 1.64-1.4 3.1-3.12 3.1h-7.14V19h-2.48V5zm.62 6.42v-3c0-.7-.58-1.28-1.26-1.28h-6.5v5.54h6.5c.68 0 1.26-.56 1.26-1.26m-20.315-3.3v7.78c0 1.68-1.42 3.06-3.12 3.1h-4.96c-1.7 0-3.08-1.4-3.12-3.1V8.12c0-1.68 1.4-3.08 3.12-3.12h4.96c1.72 0 3.12 1.4 3.12 3.12m-2.46 7.5V8.38c0-.7-.58-1.26-1.28-1.26h-3.72c-.7 0-1.28.56-1.28 1.26v7.24c0 .7.58 1.26 1.28 1.26h3.72c.7 0 1.28-.56 1.28-1.26m-14.84-8.5h-3.32c-.7 0-1.28.56-1.28 1.26v.68h-2.5v-.94c0-1.7 1.48-3.12 3.12-3.12h4.6c1.74 0 3.12 1.46 3.12 3.12v2.14c0 1.72-1.44 3.1-3.12 3.1h-4.08c-.7 0-1.28.56-1.28 1.26v2.26h8.44V19h-10.9v-4.66c0-1.72 1.46-3.1 3.12-3.1h4.08c.7 0 1.28-.56 1.28-1.26v-1.6c0-.7-.58-1.26-1.28-1.26M39.44 15.36v-2.1L46.24 5h3.48v8.26h2.42v2.1h-2.42V19h-2.46v-3.64zm2.68-2.1h5.14V6.9z"/>
</svg>
